<?xml version="1.0" encoding="UTF-8"?>
<svg width="800" height="600" viewBox="0 0 800 600" xmlns="http://www.w3.org/2000/svg">
  <circle cx="400" cy="300" r="250" fill="#4B9CD3"/>
  <g transform="translate(200, 150)">
    <!-- Cow head -->
    <path d="M250 100 Q300 50 350 100 L400 200 L300 250 L200 200 Z" fill="#E67E22"/>
    <path d="M230 80 Q220 50 200 60" fill="none" stroke="#6C4E37" stroke-width="10"/>
    <path d="M370 80 Q380 50 400 60" fill="none" stroke="#6C4E37" stroke-width="10"/>
    <!-- Closed eyes -->
    <path d="M260 120 Q270 115 280 120" stroke="#6C4E37" stroke-width="3" fill="none"/>
    <path d="M320 120 Q330 115 340 120" stroke="#6C4E37" stroke-width="3" fill="none"/>
  </g>
  <!-- Dairy products -->
  <g transform="translate(150, 300)">
    <rect x="0" y="0" width="40" height="60" fill="#B5D6E6" rx="5"/>
    <rect x="50" y="10" width="30" height="50" fill="#E74C3C" rx="5"/>
    <circle cx="100" cy="30" r="20" fill="#F1C40F"/>
    <rect x="120" y="20" width="40" height="30" fill="#ECF0F1" rx="5"/>
  </g>
</svg> 